{"title":"Six Degrees of Separation (1993) 1080p AC3 HDTV OAR no logos","uid":10552338,"size":4070820273,"categoryP":"video","categoryS":"hd___movies","magnet":"?xt=urn:btih:756b3f9b8691cf1062ee38ddcaeeb29ee59c1f5b&amp;dn=Six+Degrees+of+Separation+%281993%29+1080p+AC3+HDTV+OAR+no+logos&amp;tr=udp%3A%2F%2Ftracker.openbittorrent.com%3A80&amp;tr=udp%3A%2F%2Fopen.demonii.com%3A1337&amp;tr=udp%3A%2F%2Ftracker.coppersurfer.tk%3A6969&amp;tr=udp%3A%2F%2Fexodus.desync.com%3A6969","seeders":6,"leechers":0,"uploader":"nabsltd","files":2,"time":1405349373,"description":"This is my own rip.\n\nI tried to adjust the color to match the DVD, but the HDTV broadcast had blown-out highlights, so I could only do so much.  For HD plus great color, we're going to have to wait for a Blu-Ray release.\n\nGeneral\nUnique ID                                : 229296761415109690835844172943347105342 (0xAC80F32C62FFDFFBA71C5440AC9F3E3E)\nFormat                                   : Matroska\nFormat version                           : Version 4 / Version 2\nFile size                                : 3.75 GiB\nDuration                                 : 1h 51mn\nOverall bit rate mode                    : Variable\nOverall bit rate                         : 4 805 Kbps\nEncoded date                             : UTC 2014-07-14 10:54:33\nWriting application                      : mkvmerge v7.0.0 ('Where We Going') 64bit built on Jun  9 2014 15:16:27\nWriting library                          : libebml v1.3.0 + libmatroska v1.4.1\nDURATION                                 : 01:51:52.768000000\nNUMBER_OF_FRAMES                         : 209774\nNUMBER_OF_BYTES                          : 375915008\n_STATISTICS_WRITING_APP                  : mkvmerge v7.0.0 ('Where We Going') 64bit built on Jun  9 2014 15:16:27\n_STATISTICS_WRITING_DATE_UTC             : 2014-07-14 10:54:33\n_STATISTICS_TAGS                         : BPS DURATION NUMBER_OF_FRAMES NUMBER_OF_BYTES\n\nVideo\nID                                       : 1\nFormat                                   : AVC\nFormat/Info                              : Advanced Video Codec\nFormat profile                           : &lt;a class=&quot;__cf_email__&quot; href=&quot;/cdn-cgi/l/email-protection&quot; data-cfemail=&quot;91d9f8f6f9d1dda5bfa0&quot;&gt;[email&amp;#160;protected]&lt;/a&gt;&lt;script cf-hash='f9e31' type=&quot;text/javascript&quot;&gt;\n/* &lt;![CDATA[ */!function(){try{var t=&quot;currentScript&quot;in document?document.currentScript:function(){for(var t=document.getElementsByTagName(&quot;script&quot;),e=t.length;e--;)if(t[e].getAttribute(&quot;cf-hash&quot;))return t[e]}();if(t&amp;&amp;t.previousSibling){var e,r,n,i,c=t.previousSibling,a=c.getAttribute(&quot;data-cfemail&quot;);if(a){for(e=&quot;&quot;,r=parseInt(a.substr(0,2),16),n=2;a.length-n;n+=2)i=parseInt(a.substr(n,2),16)^r,e+=String.fromCharCode(i);e=document.createTextNode(e),c.parentNode.replaceChild(e,c)}}}catch(u){}}();/* ]]&gt; */&lt;/script&gt;\nFormat settings, CABAC                   : Yes\nFormat settings, ReFrames                : 4 frames\nCodec ID                                 : V_MPEG4/ISO/AVC\nDuration                                 : 1h 51mn\nBit rate mode                            : Variable\nBit rate                                 : 4 261 Kbps\nMaximum bit rate                         : 19.6 Mbps\nWidth                                    : 1 912 pixels\nHeight                                   : 808 pixels\nDisplay aspect ratio                     : 2.35:1\nFrame rate mode                          : Constant\nFrame rate                               : 23.976 fps\nColor space                              : YUV\nChroma subsampling                       : 4:2:0\nBit depth                                : 8 bits\nScan type                                : Progressive\nBits/(Pixel*Frame)                       : 0.115\nStream size                              : 3.33 GiB (89%)\nWriting library                          : x264 core 135 r2345 f0c1c53\nLanguage                                 : English\nDefault                                  : Yes\nForced                                   : No\nColor primaries                          : BT.709\nTransfer characteristics                 : BT.709\nMatrix coefficients                      : BT.709\n\nAudio\nID                                       : 2\nFormat                                   : AC-3\nFormat/Info                              : Audio Coding 3\nMode extension                           : CM (complete main)\nFormat settings, Endianness              : Big\nCodec ID                                 : A_AC3\nDuration                                 : 1h 51mn\nBit rate mode                            : Constant\nBit rate                                 : 448 Kbps\nChannel(s)                               : 6 channels\nChannel positions                        : Front: L C R, Side: L R, LFE\nSampling rate                            : 48.0 KHz\nBit depth                                : 16 bits\nCompression mode                         : Lossy\nStream size                              : 359 MiB (9%)\nLanguage                                 : English\nDefault                                  : Yes\nForced                                   : No\n\nMenu\n00:00:00.000                             : :Logos/Title/&quot;Hello&quot;\n00:04:19.593                             : :$2 Million Pretension\n00:09:16.139                             : :A Mugging Victim\n00:12:46.599                             : :&quot;Chaos Control&quot;\n00:14:32.830                             : :Catty About Daddy\n00:20:18.634                             : :Pasta/Politics/Poitier\n00:25:13.220                             : :&quot;Manifesto of Hate&quot;\n00:32:23.130                             : :Wheelers &amp; Dealers\n00:36:30.669                             : :Dreaming of Cats\n00:39:20.275                             : :The Naked Truth\n00:42:00.935                             : :&quot;Safe Trip&quot;\n00:44:01.764                             : :Trading Tales\n00:47:15.082                             : :The Kids Come Home\n00:49:40.853                             : :A Courageous Doctor\n00:54:05.951                             : :Reading Into Things\n00:56:36.268                             : :Harvard Detectives\n01:01:03.368                             : :Rainy Night Pickup\n01:07:27.877                             : :&quot;A Profound Thought&quot;\n01:09:22.909                             : :Illegitimate Son\n01:15:54.091                             : :Depleted Account\n01:19:31.850                             : :&quot;The Rainbow Room&quot;\n01:25:06.351                             : :Murder or Suicide?\n01:28:12.829                             : :Dueling Phones\n01:35:25.325                             : :&quot;Will You Help Me?&quot;\n01:40:38.115                             : :What's Paul's Name?\n01:43:19.652                             : :He's No Anecdote\n01:46:03.816                             : :&quot;A Terrible Match&quot;\n01:47:48.754                             : :End Credits\n\n","torrent":{"xt":"urn:btih:756b3f9b8691cf1062ee38ddcaeeb29ee59c1f5b","amp;dn":"Six+Degrees+of+Separation+%281993%29+1080p+AC3+HDTV+OAR+no+logos","amp;tr":["udp%3A%2F%2Ftracker.openbittorrent.com%3A80","udp%3A%2F%2Fopen.demonii.com%3A1337","udp%3A%2F%2Ftracker.coppersurfer.tk%3A6969","udp%3A%2F%2Fexodus.desync.com%3A6969"],"infoHash":"756b3f9b8691cf1062ee38ddcaeeb29ee59c1f5b","infoHashBuffer":{"type":"Buffer","data":[117,107,63,155,134,145,207,16,98,238,56,221,202,238,178,158,229,156,31,91]},"announce":[],"urlList":[]}}